HIERARCHY
ROOT RootJoint
{
    OFFSET   0.000000   0.000000   0.000000
    CHANNELS 6 Xposition Yposition Zposition Xrotation Yrotation Zrotation
    JOINT lHip
    {
        OFFSET   0.100000  -0.051395   0.000000
        CHANNELS 3 Xrotation Yrotation Zrotation
        JOINT lKnee
        {
            OFFSET   0.000000  -0.410000   0.000000
            CHANNELS 3 Xrotation Yrotation Zrotation
            JOINT lAnkle
            {
                OFFSET   0.000000  -0.390000   0.000000
                CHANNELS 3 Xrotation Yrotation Zrotation
                JOINT lToeJoint
                {
                    OFFSET   0.000000  -0.050000   0.130000
                    CHANNELS 3 Xrotation Yrotation Zrotation
                    End Site
                    {
                        OFFSET   0.010000   0.002000   0.060000
                    }
                }
            }
        }
    }
    JOINT rHip
    {
        OFFSET  -0.100000  -0.051395   0.000000
        CHANNELS 3 Xrotation Yrotation Zrotation
        JOINT rKnee
        {
            OFFSET   0.000000  -0.410000   0.000000
            CHANNELS 3 Xrotation Yrotation Zrotation
            JOINT rAnkle
            {
                OFFSET   0.000000  -0.390000   0.000000
                CHANNELS 3 Xrotation Yrotation Zrotation
                JOINT rToeJoint
                {
                    OFFSET   0.000000  -0.050000   0.130000
                    CHANNELS 3 Xrotation Yrotation Zrotation
                    End Site
                    {
                        OFFSET  -0.010000   0.002000   0.060000
                    }
                }
            }
        }
    }
    JOINT pelvis_lowerback
    {
        OFFSET   0.000000   0.093605   0.000000
        CHANNELS 3 Xrotation Yrotation Zrotation
        JOINT lowerback_torso
        {
            OFFSET   0.000000   0.100000   0.000000
            CHANNELS 3 Xrotation Yrotation Zrotation
            JOINT torso_head
            {
                OFFSET   0.000000   0.282350   0.000000
                CHANNELS 3 Xrotation Yrotation Zrotation
                End Site
                {
                    OFFSET   0.000000   0.192650   0.000000
                }
            }
            JOINT lTorso_Clavicle
            {
                OFFSET   0.001000   0.157500   0.000000
                CHANNELS 3 Xrotation Yrotation Zrotation
                JOINT lShoulder
                {
                    OFFSET   0.117647   0.000000   0.000000
                    CHANNELS 3 Xrotation Yrotation Zrotation
                    JOINT lElbow
                    {
                        OFFSET   0.245000   0.000000   0.000000
                        CHANNELS 3 Xrotation Yrotation Zrotation
                        JOINT lWrist
                        {
                            OFFSET   0.240000   0.000000   0.000000
                            CHANNELS 3 Xrotation Yrotation Zrotation
                            End Site
                            {
                                OFFSET   0.116353  -0.002500   0.000000
                            }
                        }
                    }
                }
            }
            JOINT rTorso_Clavicle
            {
                OFFSET  -0.001000   0.157500   0.000000
                CHANNELS 3 Xrotation Yrotation Zrotation
                JOINT rShoulder
                {
                    OFFSET  -0.117647   0.000000   0.000000
                    CHANNELS 3 Xrotation Yrotation Zrotation
                    JOINT rElbow
                    {
                        OFFSET  -0.245000   0.000000   0.000000
                        CHANNELS 3 Xrotation Yrotation Zrotation
                        JOINT rWrist
                        {
                            OFFSET  -0.240000   0.000000   0.000000
                            CHANNELS 3 Xrotation Yrotation Zrotation
                            End Site
                            {
                                OFFSET  -0.116353  -0.002500   0.000000
                            }
                        }
                    }
                }
            }
        }
    }
}
MOTION
Frames: 14
Frame Time:   0.010000
  3.545797   0.842254  -1.499774 138.812745 -51.352053 145.342633 -49.167724   4.889652  -2.125676  40.799600  -1.413912   4.109704 -17.001619  -3.079209  -0.163770   0.000000   0.000005   0.000001 -48.554077  -4.662164  -0.220847  37.592293   6.616557   0.645837 -13.153126   4.479432  -3.526178  -0.000003   0.000009   0.000000   4.288799   0.984558   0.230690  17.162412   3.869477   0.676294 -10.286677   8.338207  -3.263816   1.116144   1.243903 -13.742851  28.255138 -30.358000 -37.483294  -2.262399 -13.159099   2.203486  -7.536123  -8.519253  -0.018587  -1.603469   3.204407  15.370266  17.135753  24.418319  52.912358  -1.934523  19.524387  -5.612729  -1.510772   3.316327  -3.629989
  3.543932   0.835685  -1.500319 138.570188 -51.238096 145.247293 -50.171151   5.202754  -2.247836  42.757864  -1.274331   4.391152 -18.025048  -3.160370  -0.090019   0.000000   0.000003   0.000000 -49.665712  -4.511085  -0.362697  39.712079   6.621285   0.666715 -14.280134   4.435212  -3.619109  -0.000002   0.000007   0.000000   4.376180   0.973201   0.245059  17.510954   3.826284   0.725147 -10.364290   8.422209  -3.244071   1.108930   1.029555 -13.693665  28.299883 -31.088070 -36.910848  -2.089083 -12.504869   2.003968  -8.307139  -8.628158  -0.132220  -1.612390   3.258956  15.422316  16.882035  24.575206  52.452539  -1.941864  19.909730  -5.670363  -1.525984   3.380919  -3.897472
  3.542066   0.829116  -1.500864 138.328533 -51.123889 145.152957 -51.174422   5.517940  -2.364531  44.715316  -1.125219   4.667649 -19.048452  -3.242834  -0.017726   0.000000   0.000001   0.000000 -50.776739  -4.357291  -0.501552  41.831886   6.626777   0.687403 -15.407146   4.392823  -3.712889  -0.000002   0.000005   0.000000   4.463564   0.961865   0.259445  17.859516   3.783388   0.774260 -10.441949   8.506184  -3.224206   1.101901   0.815200 -13.644509  28.353560 -31.817717 -36.333254  -1.913867 -11.851234   1.802921  -9.078595  -8.735540  -0.247358  -1.621361   3.313497  15.474377  16.629391  24.733941  51.992908  -1.948809  20.295079  -5.728087  -1.540895   3.445581  -4.164956
  3.540201   0.822547  -1.501408 138.087773 -51.009433 145.059621 -52.177596   5.835111  -2.475725  46.671930  -0.966753   4.938878 -20.071837  -3.326574   0.053086   0.000000   0.000000  -0.000001 -51.887165  -4.200843  -0.637363  43.951715   6.633025   0.707873 -16.534164   4.352281  -3.807482  -0.000001   0.000004   0.000000   4.550951   0.950551   0.273848  18.208098   3.740791   0.823631 -10.519655   8.590133  -3.204222   1.095056   0.600840 -13.595382  28.416391 -32.546863 -35.750203  -1.736721 -11.198207   1.600303  -9.850489  -8.841380  -0.363982  -1.630383   3.368029  15.526450  16.377833  24.894512  51.533460  -1.955357  20.680435  -5.785906  -1.555504   3.510312  -4.432442
  3.537657   0.815268  -1.502396 138.026555 -50.986933 145.121993 -52.983982   6.184314  -2.655408  48.673522  -0.783280   5.325580 -21.150334  -3.358106   0.045043   0.000000   0.000000  -0.000001 -52.798475  -4.098741  -0.773126  46.115346   6.670350   0.667246 -17.752728   4.313248  -3.888614  -0.000001   0.000004   0.000000   4.631722   0.938004   0.284243  18.530527   3.692850   0.858221 -10.410717   8.548174  -3.265211   1.085711   0.336032 -13.520366  28.375112 -33.270331 -35.297511  -1.593947 -10.487737   1.446609 -10.156379  -8.790216  -0.592210  -1.633986   3.444242  15.527484  16.066924  25.060367  51.183397  -1.967441  20.927280  -5.844264  -1.488787   3.566245  -4.641774
  3.534774   0.807634  -1.503605 138.054898 -51.010456 145.261963 -53.691257   6.551083  -2.867515  50.696522  -0.577330   5.765954 -22.256399  -3.362361  -0.002002   0.000000   0.000002   0.000000 -53.610214  -4.023076  -0.908995  48.301114   6.720692   0.594498 -19.017051   4.275717  -3.963457   0.000000   0.000005   0.000000   4.709187   0.924842   0.292643  18.839879   3.642259   0.885562 -10.208646   8.442974  -3.366390   1.075426   0.045988 -13.432444  28.282865 -33.991590 -34.910417  -1.467846  -9.748572   1.316794 -10.228559  -8.660774  -0.875531  -1.634832   3.531297  15.502993  15.726381  25.229578  50.888549  -1.982279  21.104879  -5.902875  -1.381366   3.617475  -4.822117
  3.531890   0.799999  -1.504815 138.083346 -51.033935 145.402022 -54.397696   6.920426  -3.075207  52.717818  -0.355970   6.198770 -23.362471  -3.365708  -0.049120   0.000000   0.000005   0.000000 -54.421695  -3.945499  -1.043764  50.487165   6.768241   0.519863 -20.281362   4.239841  -4.039107   0.000000   0.000006   0.000001   4.786653   0.911692   0.301061  19.149239   3.591817   0.913175 -10.006818   8.337423  -3.467167   1.065587  -0.244070 -13.344573  28.195751 -34.713352 -34.521389  -1.340317  -9.009692   1.185608 -10.300066  -8.530980  -1.158590  -1.635640   3.618353  15.478502  15.386328  25.400372  50.594405  -1.996940  21.282492  -5.961507  -1.273779   3.668368  -5.002567
  3.528614   0.792203  -1.506235 138.227731 -51.056671 145.627327 -54.995461   7.257994  -3.248330  54.722812  -0.097959   6.588712 -24.485516  -3.343246  -0.110609   0.000000   0.000006   0.000000 -55.124091  -3.845158  -1.128562  52.649613   6.811302   0.430312 -21.522827   4.192861  -4.098130   0.000000   0.000007   0.000001   4.855609   0.911056   0.308724  19.424790   3.590901   0.936233  -9.817418   8.223239  -3.509339   1.062287  -0.485064 -13.335075  28.011621 -35.371298 -34.138858  -1.164910  -8.330180   0.976945 -10.334246  -8.277762  -1.321290  -1.644039   3.749777  15.497541  15.076726  25.501651  50.290531  -2.017670  21.468021  -6.036613  -1.084112   3.665799  -5.212226
  3.524552   0.784080  -1.508075 138.604075 -51.076902 146.023240 -55.376996   7.528302  -3.358545  56.696993   0.215301   6.899154 -25.642363  -3.269475  -0.199750  -0.000002   0.000007   0.000000 -55.608719  -3.702529  -1.114489  54.764560   6.847286   0.312988 -22.718568   4.121233  -4.123605   0.000000   0.000006   0.000001   4.907542   0.935435   0.314832  19.632713   3.688825   0.949495  -9.652395   8.092516  -3.434739   1.071081  -0.627917 -13.482229  27.625814 -35.902154 -33.774125  -0.894039  -7.770044   0.614227 -10.295381  -7.778239  -1.244003  -1.667954   3.969908  15.603721  14.827094  25.462123  49.965957  -2.050593  21.669395  -6.144644  -0.730937   3.555775  -5.479655
  3.520489   0.775957  -1.509916 138.980791 -51.095498 146.419521 -55.758247   7.799332  -3.467011  58.669521   0.539064   7.198631 -26.799009  -3.193923  -0.287374  -0.000003   0.000007   0.000001 -56.093305  -3.560023  -1.099210  56.879727   6.878947   0.194398 -23.914234   4.050151  -4.150571   0.000000   0.000006   0.000001   4.959473   0.959819   0.320919  19.840637   3.786795   0.962402  -9.487254   7.962006  -3.359783   1.079508  -0.770792 -13.629365  27.241588 -36.434990 -33.411360  -0.619946  -7.211622   0.249309 -10.257239  -7.278665  -1.167146  -1.692285   4.189995  15.710022  14.577300  25.423873  49.641301  -2.083153  21.870827  -6.252703  -0.378322   3.444110  -5.746369
  3.516427   0.767835  -1.511757 139.357848 -51.112456 146.816141 -56.139232   8.071071  -3.573725  60.640470   0.872940   7.486807 -27.955452  -3.116621  -0.373447  -0.000004   0.000008   0.000001 -56.577856  -3.417652  -1.082726  58.995087   6.906240   0.074705 -25.109829   3.979646  -4.179015   0.000000   0.000005   0.000001   5.011401   0.984209   0.326983  20.048562   3.884812   0.974954  -9.321992   7.831710  -3.284471   1.087569  -0.913689 -13.776486  26.858914 -36.969774 -33.050547  -0.342603  -6.654948  -0.117863 -10.219813  -6.779040  -1.090706  -1.717032   4.410036  15.816448  14.327347  25.386902  49.316564  -2.115350  22.072315  -6.360791  -0.026273   3.330809  -6.012358
  3.511531   0.759845  -1.514337 139.959431 -51.259505 147.358938 -56.155046   8.408607  -3.697289  62.467141   1.158831   7.891390 -28.907238  -3.010497  -0.517108  -0.000003   0.000006   0.000001 -56.707916  -3.335578  -1.024099  60.991879   6.925312  -0.094418 -26.070834   3.871662  -4.156555   0.000001   0.000003   0.000001   5.051314   1.008676   0.332748  20.208412   3.983023   0.987455  -9.203673   7.719311  -3.341031   1.100361  -1.033614 -13.995190  26.389345 -37.363705 -32.712829  -0.280541  -6.410742  -0.194179  -8.535665  -6.095607  -1.270577  -1.766491   4.661113  16.088703  14.117156  25.151115  48.866521  -2.116163  22.332101  -6.395045   0.546710   3.313188  -6.509297
  3.506635   0.751855  -1.516917 140.565128 -51.402962 147.905902 -56.170137   8.746176  -3.820868  64.291960   1.457465   8.286698 -29.858663  -2.902006  -0.658970  -0.000003   0.000004   0.000000 -56.838049  -3.253638  -0.965291  62.988787   6.938523  -0.264113 -27.031675   3.763318  -4.135917   0.000001   0.000000   0.000001   5.091224   1.033147   0.338495  20.368261   4.081268   0.999683  -9.085497   7.606797  -3.397341   1.112696  -1.153586 -14.213876  25.920224 -37.759827 -32.377410  -0.218182  -6.166619  -0.270725  -6.851386  -5.417722  -1.470331  -1.817165   4.911953  16.361276  13.905333  24.916829  48.416389  -2.116809  22.591887  -6.429359   1.119507   3.290607  -7.006026
  3.501739   0.743865  -1.519497 141.174883 -51.542785 148.456975 -56.184505   9.083777  -3.944471  66.114948   1.768526   8.672351 -30.809726  -2.791177  -0.798995  -0.000002   0.000003   0.000000 -56.968255  -3.171831  -0.906301  64.985770   6.945856  -0.434173 -27.992359   3.654644  -4.117104   0.000002  -0.000002   0.000001   5.131133   1.057623   0.344226  20.528108   4.179547   1.011638  -8.967464   7.494167  -3.453403   1.124573  -1.273605 -14.432546  25.451517 -38.158113 -32.044308  -0.155522  -5.922579  -0.347504  -5.166510  -4.745972  -1.689782  -1.869056   5.162549  16.634177  13.691888  24.684058  47.966154  -2.117287  22.851673  -6.463735   1.692072   3.263071  -7.502490
